<svg width="24" height="24" viewBox="0 0 24 24" fill="none" xmlns="http://www.w3.org/2000/svg">
<path fill-rule="evenodd" clip-rule="evenodd" d="M11.943 1.25H12.057C14.366 1.25 16.175 1.25 17.587 1.44C19.031 1.634 20.171 2.04 21.066 2.934C21.961 3.829 22.366 4.969 22.56 6.414C22.75 7.825 22.75 9.634 22.75 11.943V12.057C22.75 14.366 22.75 16.175 22.56 17.587C22.366 19.031 21.96 20.171 21.066 21.066C20.171 21.961 19.031 22.366 17.586 22.56C16.175 22.75 14.366 22.75 12.057 22.75H11.943C9.634 22.75 7.825 22.75 6.413 22.56C4.969 22.366 3.829 21.96 2.934 21.066C2.039 20.171 1.634 19.031 1.44 17.586C1.25 16.175 1.25 14.366 1.25 12.057V11.943C1.25 9.634 1.25 7.825 1.44 6.413C1.634 4.969 2.04 3.829 2.934 2.934C3.829 2.039 4.969 1.634 6.414 1.44C7.825 1.25 9.634 1.25 11.943 1.25ZM6.613 2.926C5.335 3.098 4.564 3.426 3.995 3.995C3.425 4.565 3.098 5.335 2.926 6.614C2.752 7.914 2.75 9.622 2.75 12C2.75 14.378 2.752 16.086 2.926 17.386C3.098 18.665 3.426 19.436 3.995 20.006C4.565 20.575 5.335 20.902 6.614 21.074C7.914 21.248 9.622 21.25 12 21.25C14.378 21.25 16.086 21.248 17.386 21.074C18.665 20.902 19.436 20.574 20.006 20.005C20.575 19.435 20.902 18.665 21.074 17.386C21.248 16.086 21.25 14.378 21.25 12C21.25 9.622 21.248 7.914 21.074 6.614C20.902 5.335 20.574 4.564 20.005 3.994C19.435 3.425 18.665 3.098 17.386 2.926C16.086 2.752 14.378 2.75 12 2.75C9.622 2.75 7.913 2.752 6.613 2.926ZM10.747 5.994C10.7486 6.19274 10.6712 6.38399 10.5319 6.52574C10.3926 6.66749 10.2027 6.74815 10.004 6.75C9.148 6.757 8.55 6.785 8.1 6.874C7.672 6.958 7.434 7.086 7.26 7.26C7.086 7.434 6.958 7.672 6.874 8.1C6.786 8.55 6.757 9.148 6.75 10.004C6.74828 10.2029 6.66761 10.393 6.52573 10.5324C6.38386 10.6719 6.19241 10.7492 5.9935 10.7475C5.79459 10.7458 5.60451 10.6651 5.46507 10.5232C5.32564 10.3814 5.24828 10.1899 5.25 9.991C5.257 9.141 5.284 8.414 5.402 7.812C5.524 7.189 5.753 6.645 6.199 6.199C6.645 5.753 7.189 5.524 7.812 5.402C8.414 5.284 9.14 5.257 9.991 5.25C10.0895 5.24921 10.1872 5.26783 10.2785 5.30479C10.3698 5.34175 10.4529 5.39633 10.5231 5.46542C10.5933 5.53451 10.6492 5.61675 10.6876 5.70744C10.726 5.79813 10.7462 5.89551 10.747 5.994ZM13.25 5.994C13.2508 5.89542 13.271 5.79797 13.3095 5.70721C13.348 5.61645 13.404 5.53416 13.4743 5.46506C13.5446 5.39596 13.6278 5.3414 13.7192 5.3045C13.8106 5.2676 13.9084 5.24908 14.007 5.25C14.857 5.257 15.583 5.284 16.186 5.402C16.809 5.524 17.352 5.753 17.798 6.199C18.244 6.645 18.474 7.189 18.596 7.812C18.714 8.414 18.74 9.14 18.747 9.991C18.7479 10.0895 18.7293 10.1872 18.6924 10.2785C18.6555 10.3698 18.601 10.453 18.5319 10.5232C18.4629 10.5935 18.3807 10.6494 18.29 10.6879C18.1994 10.7264 18.102 10.7466 18.0035 10.7475C17.905 10.7484 17.8073 10.7298 17.716 10.6929C17.6247 10.656 17.5415 10.6015 17.4713 10.5324C17.401 10.4634 17.3451 10.3812 17.3066 10.2905C17.2681 10.1999 17.2479 10.1025 17.247 10.004C17.24 9.148 17.212 8.55 17.124 8.1C17.04 7.672 16.912 7.434 16.738 7.26C16.563 7.086 16.326 6.958 15.898 6.874C15.448 6.786 14.85 6.757 13.994 6.75C13.8955 6.74922 13.7981 6.72904 13.7074 6.69062C13.6167 6.6522 13.5345 6.5963 13.4654 6.52609C13.3963 6.45589 13.3417 6.37277 13.3048 6.28147C13.2678 6.19018 13.2492 6.09249 13.25 5.994ZM5.994 13.25C6.09249 13.2492 6.19018 13.2678 6.28147 13.3048C6.37277 13.3417 6.45589 13.3963 6.52609 13.4654C6.5963 13.5345 6.6522 13.6167 6.69062 13.7074C6.72904 13.7981 6.74922 13.8955 6.75 13.994C6.757 14.85 6.785 15.448 6.874 15.897C6.958 16.326 7.086 16.563 7.26 16.737C7.434 16.912 7.672 17.04 8.1 17.124C8.55 17.212 9.148 17.24 10.004 17.248C10.2029 17.2497 10.393 17.3304 10.5324 17.4723C10.6719 17.6141 10.7492 17.8056 10.7475 18.0045C10.7458 18.2034 10.6651 18.3935 10.5232 18.5329C10.3814 18.6724 10.1899 18.7497 9.991 18.748C9.141 18.74 8.414 18.714 7.812 18.596C7.189 18.474 6.645 18.244 6.199 17.798C5.753 17.352 5.524 16.808 5.402 16.186C5.284 15.583 5.257 14.857 5.25 14.006C5.24921 13.9075 5.26783 13.8098 5.30479 13.7185C5.34175 13.6272 5.39633 13.5441 5.46542 13.4739C5.53451 13.4037 5.61675 13.3478 5.70744 13.3094C5.79813 13.271 5.89551 13.2508 5.994 13.25ZM18.004 13.25C18.1025 13.2509 18.1998 13.2712 18.2905 13.3098C18.3811 13.3483 18.4633 13.4043 18.5323 13.4746C18.6013 13.5449 18.6558 13.6281 18.6926 13.7194C18.7294 13.8108 18.7479 13.9085 18.747 14.007C18.74 14.857 18.714 15.583 18.596 16.186C18.474 16.809 18.244 17.352 17.798 17.798C17.352 18.244 16.808 18.474 16.186 18.596C15.583 18.714 14.857 18.74 14.006 18.747C13.9075 18.7478 13.8098 18.7292 13.7185 18.6922C13.6272 18.6552 13.5441 18.6007 13.4739 18.5316C13.4037 18.4625 13.3478 18.3802 13.3094 18.2896C13.271 18.1989 13.2508 18.1015 13.25 18.003C13.2492 17.9045 13.2678 17.8068 13.3048 17.7155C13.3418 17.6242 13.3963 17.5411 13.4654 17.4709C13.5345 17.4007 13.6168 17.3448 13.7074 17.3064C13.7981 17.268 13.8955 17.2478 13.994 17.247C14.85 17.24 15.448 17.212 15.897 17.124C16.326 17.04 16.563 16.912 16.737 16.738C16.912 16.563 17.04 16.326 17.124 15.898C17.212 15.448 17.24 14.85 17.248 13.994C17.2488 13.8955 17.269 13.7981 17.3074 13.7074C17.3458 13.6167 17.4017 13.5345 17.4719 13.4654C17.5421 13.3963 17.6252 13.3417 17.7165 13.3048C17.8078 13.2678 17.9055 13.2492 18.004 13.25Z" fill="white"/>
</svg>
