<svg width="24" height="24" viewBox="0 0 24 24" fill="none" xmlns="http://www.w3.org/2000/svg">
<path d="M21 4C22.47 6 22.96 11 22.96 11C22.96 11 23.45 15.5 21 20" stroke="white" stroke-width="1.5" stroke-linecap="round"/>
<path fill-rule="evenodd" clip-rule="evenodd" d="M11.39 4.91001C10.676 5.25701 9.77 5.85201 8.481 6.70201L8.262 6.84601L8.212 6.87901C7.832 7.12901 7.569 7.30301 7.281 7.43101C6.99655 7.55656 6.69759 7.64625 6.391 7.69801C6.081 7.75001 5.765 7.75001 5.309 7.75001H5.25C3.806 7.75001 3.32 7.76601 2.905 7.95801C2.47152 8.17437 2.11124 8.51344 1.869 8.93301C1.651 9.33801 1.61 9.75301 1.533 11.017C1.513 11.364 1.5 11.697 1.5 12C1.5 12.303 1.512 12.636 1.533 12.983C1.61 14.247 1.651 14.663 1.869 15.067C2.078 15.456 2.504 15.857 2.905 16.042C3.319 16.234 3.806 16.25 5.25 16.25H5.31C5.765 16.25 6.08 16.25 6.391 16.302C6.698 16.354 6.996 16.444 7.281 16.569C7.569 16.697 7.833 16.87 8.213 17.121L8.263 17.154L8.481 17.298C9.771 18.148 10.676 18.743 11.391 19.09C12.102 19.436 12.459 19.45 12.708 19.365C12.845 19.318 12.98 19.25 13.098 19.166C13.315 19.014 13.513 18.719 13.651 17.948C13.791 17.173 13.842 16.101 13.914 14.571C13.966 13.451 14 12.511 14 12C14 11.488 13.966 10.549 13.914 9.43001C13.842 7.89901 13.791 6.82701 13.652 6.05201C13.512 5.28101 13.315 4.98601 13.099 4.83401C12.9787 4.74934 12.8471 4.68201 12.708 4.63401C12.458 4.55001 12.102 4.56401 11.39 4.91001ZM10.735 3.56001C11.561 3.16001 12.375 2.93601 13.192 3.21501C13.464 3.30801 13.726 3.44101 13.961 3.60601C14.667 4.10301 14.966 4.88601 15.128 5.78601C15.287 6.67001 15.341 7.84201 15.409 9.30201L15.412 9.36001C15.464 10.475 15.5 11.448 15.5 12C15.5 12.552 15.464 13.525 15.412 14.64L15.409 14.698C15.341 16.158 15.287 17.33 15.128 18.214C14.966 19.114 14.667 19.897 13.961 20.394C13.7243 20.5596 13.4654 20.6909 13.192 20.784C12.374 21.064 11.561 20.841 10.735 20.439C9.921 20.044 8.935 19.393 7.703 18.582L7.436 18.406C6.989 18.111 6.834 18.012 6.676 17.942C6.5053 17.8659 6.32548 17.8121 6.141 17.782C5.97 17.752 5.787 17.75 5.251 17.75H5.089C3.872 17.75 3.027 17.751 2.275 17.403C1.54708 17.0506 0.944428 16.4839 0.548 15.779C0.156 15.05 0.11 14.289 0.044 13.204L0.036 13.074C0.0132398 12.7164 0.0012344 12.3583 0 12C0 11.659 0.014 11.294 0.036 10.926L0.044 10.796C0.11 9.71201 0.156 8.95001 0.548 8.22001C0.944428 7.5151 1.54708 6.94839 2.275 6.59601C3.027 6.24801 3.872 6.24801 5.089 6.24901H5.25C5.787 6.24901 5.97 6.24701 6.141 6.21801C6.32494 6.18701 6.50432 6.13327 6.675 6.05801C6.835 5.98801 6.989 5.88801 7.436 5.59301L7.703 5.41701C8.934 4.60601 9.921 3.95501 10.735 3.56001ZM18.77 5.42401C18.9228 5.29676 19.1199 5.23539 19.3179 5.25339C19.5159 5.27139 19.6987 5.36729 19.826 5.52001L19.827 5.52101L19.829 5.52301L19.832 5.52701L19.839 5.53601C19.8688 5.57314 19.8975 5.61116 19.925 5.65001C19.9967 5.75096 20.0645 5.85471 20.128 5.96101C20.289 6.23101 20.496 6.62601 20.7 7.15601C21.108 8.21701 21.5 9.80901 21.5 12C21.5 14.192 21.108 15.783 20.7 16.845C20.544 17.2587 20.3526 17.6582 20.128 18.039C20.0456 18.1765 19.9561 18.3097 19.86 18.438L19.847 18.455L19.839 18.465L19.832 18.474L19.829 18.477L19.827 18.479L19.25 18L19.826 18.48C19.6975 18.6272 19.5167 18.7185 19.3219 18.7344C19.1271 18.7503 18.9339 18.6896 18.7832 18.5651C18.6326 18.4407 18.5364 18.2623 18.5153 18.0681C18.4942 17.8738 18.5497 17.679 18.67 17.525M18.67 17.525L18.673 17.52L18.704 17.479C18.7524 17.4101 18.7981 17.3394 18.841 17.267C18.961 17.069 19.129 16.751 19.3 16.306C19.642 15.417 20 14.009 20 12C20 9.99201 19.642 8.58301 19.3 7.69401C19.1748 7.36112 19.0212 7.03961 18.841 6.73301C18.7881 6.6447 18.731 6.55894 18.67 6.47601L18.673 6.48001L18.672 6.47801L18.67 6.47601C18.5445 6.32295 18.4845 6.12647 18.5033 5.9294C18.522 5.73234 18.6179 5.55067 18.77 5.42401M16.886 8.34401C16.9721 8.29618 17.0669 8.26579 17.1647 8.25458C17.2626 8.24336 17.3618 8.25155 17.4565 8.27867C17.5512 8.30579 17.6397 8.3513 17.7168 8.41261C17.7939 8.47393 17.8582 8.54984 17.906 8.63601V8.63701L17.907 8.63901L17.909 8.64201L17.913 8.64901L17.923 8.66701L17.949 8.72101C18.0644 8.98095 18.1574 9.25026 18.227 9.52601C18.367 10.077 18.5 10.89 18.5 12C18.5 13.11 18.368 13.923 18.227 14.474C18.1729 14.6885 18.1051 14.8992 18.024 15.105C17.9932 15.1824 17.9592 15.2585 17.922 15.333L17.912 15.352L17.909 15.359L17.907 15.362C17.907 15.362 17.906 15.365 17.277 15.016L17.906 15.364C17.8588 15.4505 17.795 15.5268 17.7183 15.5886C17.6416 15.6505 17.5535 15.6966 17.4589 15.7243C17.3644 15.7521 17.2653 15.761 17.1674 15.7505C17.0694 15.7399 16.9745 15.7102 16.888 15.663C16.8015 15.6158 16.7252 15.552 16.6634 15.4753C16.6015 15.3986 16.5554 15.3105 16.5277 15.2159C16.4999 15.1214 16.491 15.0223 16.5016 14.9244C16.5121 14.8264 16.5418 14.7315 16.589 14.645L16.594 14.635C16.6676 14.4619 16.7278 14.2834 16.774 14.101C16.882 13.677 17 12.991 17 12.001C17 11.011 16.882 10.323 16.773 9.89901C16.7271 9.71667 16.6673 9.53815 16.594 9.36501L16.589 9.35501C16.496 9.18138 16.4749 8.97812 16.5305 8.78914C16.5861 8.60016 16.7138 8.44062 16.886 8.34501V8.34401Z" fill="white"/>
</svg>
