<svg width="24" height="24" viewBox="0 0 24 24" fill="none" xmlns="http://www.w3.org/2000/svg">
<path fill-rule="evenodd" clip-rule="evenodd" d="M12.14 4.91001C11.426 5.25701 10.52 5.85201 9.231 6.70201L9.012 6.84601L8.962 6.87901C8.582 7.12901 8.319 7.30301 8.031 7.43101C7.74655 7.55656 7.44759 7.64625 7.141 7.69801C6.831 7.75001 6.515 7.75001 6.059 7.75001H6C4.556 7.75001 4.07 7.76601 3.655 7.95801C3.22152 8.17437 2.86124 8.51344 2.619 8.93301C2.401 9.33801 2.36 9.75301 2.283 11.017C2.263 11.364 2.25 11.697 2.25 12C2.25 12.303 2.262 12.636 2.283 12.983C2.36 14.247 2.401 14.663 2.619 15.067C2.828 15.456 3.254 15.857 3.655 16.042C4.069 16.234 4.556 16.25 6 16.25H6.06C6.515 16.25 6.83 16.25 7.141 16.302C7.448 16.354 7.746 16.444 8.031 16.569C8.319 16.697 8.583 16.87 8.963 17.121L9.013 17.154L9.231 17.298C10.521 18.148 11.426 18.743 12.141 19.09C12.852 19.436 13.209 19.45 13.458 19.365C13.595 19.318 13.73 19.25 13.848 19.166C14.065 19.014 14.263 18.719 14.401 17.948C14.541 17.173 14.592 16.101 14.664 14.571C14.716 13.451 14.75 12.511 14.75 12C14.75 11.488 14.716 10.549 14.664 9.43001C14.592 7.89901 14.541 6.82701 14.402 6.05201C14.262 5.28101 14.065 4.98601 13.849 4.83401C13.7287 4.74934 13.5971 4.68201 13.458 4.63401C13.208 4.55001 12.852 4.56401 12.14 4.91001ZM11.485 3.56001C12.311 3.16001 13.125 2.93601 13.942 3.21501C14.214 3.30801 14.476 3.44101 14.711 3.60601C15.417 4.10301 15.716 4.88601 15.878 5.78601C16.037 6.67001 16.091 7.84201 16.159 9.30201L16.162 9.36001C16.214 10.475 16.25 11.448 16.25 12C16.25 12.552 16.214 13.525 16.162 14.64L16.159 14.698C16.091 16.158 16.037 17.33 15.878 18.214C15.716 19.114 15.417 19.897 14.711 20.394C14.4743 20.5596 14.2154 20.6909 13.942 20.784C13.124 21.064 12.311 20.841 11.485 20.439C10.671 20.044 9.685 19.393 8.453 18.582L8.186 18.406C7.739 18.111 7.584 18.012 7.426 17.942C7.2553 17.8659 7.07548 17.8121 6.891 17.782C6.72 17.752 6.537 17.75 6.001 17.75H5.839C4.622 17.75 3.777 17.751 3.025 17.403C2.29708 17.0506 1.69443 16.4839 1.298 15.779C0.906 15.05 0.86 14.289 0.794 13.204L0.786 13.074C0.76324 12.7164 0.751234 12.3583 0.75 12C0.75 11.659 0.764 11.294 0.786 10.926L0.794 10.796C0.86 9.71201 0.906 8.95001 1.298 8.22001C1.69443 7.5151 2.29708 6.94839 3.025 6.59601C3.777 6.24801 4.622 6.24801 5.839 6.24901H6C6.537 6.24901 6.72 6.24701 6.891 6.21801C7.07494 6.18701 7.25432 6.13327 7.425 6.05801C7.585 5.98801 7.739 5.88801 8.186 5.59301L8.453 5.41701C9.684 4.60601 10.671 3.95501 11.485 3.56001Z" fill="white"/>
<path d="M18.656 8.63701C18.5553 8.47299 18.3954 8.3539 18.2094 8.30433C18.0235 8.25476 17.8255 8.27848 17.6565 8.37062C17.4876 8.46275 17.3604 8.61625 17.3013 8.79943C17.2422 8.98262 17.2557 9.18149 17.339 9.35501C17.346 9.36901 17.364 9.40801 17.382 9.45201C17.417 9.53901 17.469 9.68701 17.523 9.89901C17.633 10.323 17.75 11.01 17.75 12C17.75 12.99 17.632 13.677 17.523 14.101C17.469 14.313 17.417 14.461 17.382 14.548L17.339 14.645C17.2459 14.8186 17.2249 15.0219 17.2805 15.2109C17.3361 15.3999 17.4638 15.5594 17.636 15.655C17.998 15.857 18.471 15.695 18.672 15.333L18.699 15.28C18.8137 15.0195 18.9067 14.7499 18.977 14.474C19.117 13.923 19.25 13.11 19.25 12C19.25 10.89 19.118 10.077 18.977 9.52601C18.9229 9.31155 18.8551 9.10079 18.774 8.89501C18.7509 8.83589 18.7259 8.77753 18.699 8.72001L18.656 8.63701Z" fill="white"/>
</svg>
