<svg width="24" height="24" viewBox="0 0 24 24" fill="none" xmlns="http://www.w3.org/2000/svg">
<path fill-rule="evenodd" clip-rule="evenodd" d="M12.14 4.91001C11.426 5.25701 10.52 5.85201 9.231 6.70201L9.012 6.84601L8.962 6.87901C8.582 7.12901 8.319 7.30301 8.031 7.43101C7.74655 7.55656 7.44759 7.64625 7.141 7.69801C6.831 7.75001 6.515 7.75001 6.059 7.75001H6C4.556 7.75001 4.07 7.76601 3.655 7.95801C3.22152 8.17437 2.86124 8.51344 2.619 8.93301C2.401 9.33801 2.36 9.75301 2.283 11.017C2.263 11.364 2.25 11.697 2.25 12C2.25 12.303 2.262 12.636 2.283 12.983C2.36 14.247 2.401 14.663 2.619 15.067C2.828 15.456 3.254 15.857 3.655 16.042C4.069 16.234 4.556 16.25 6 16.25H6.06C6.515 16.25 6.83 16.25 7.141 16.302C7.448 16.354 7.746 16.444 8.031 16.569C8.319 16.697 8.583 16.87 8.963 17.121L9.013 17.154L9.231 17.298C10.521 18.148 11.426 18.743 12.141 19.09C12.852 19.436 13.209 19.45 13.458 19.365C13.595 19.318 13.73 19.25 13.848 19.166C14.065 19.014 14.263 18.719 14.401 17.948C14.541 17.173 14.592 16.101 14.664 14.571C14.716 13.451 14.75 12.511 14.75 12C14.75 11.488 14.716 10.549 14.664 9.43001C14.592 7.89901 14.541 6.82701 14.402 6.05201C14.262 5.28101 14.065 4.98601 13.849 4.83401C13.7287 4.74934 13.5971 4.68201 13.458 4.63401C13.208 4.55001 12.852 4.56401 12.14 4.91001ZM11.485 3.56001C12.311 3.16001 13.125 2.93601 13.942 3.21501C14.214 3.30801 14.476 3.44101 14.711 3.60601C15.417 4.10301 15.716 4.88601 15.878 5.78601C16.037 6.67001 16.091 7.84201 16.159 9.30201L16.162 9.36001C16.214 10.475 16.25 11.448 16.25 12C16.25 12.552 16.214 13.525 16.162 14.64L16.159 14.698C16.091 16.158 16.037 17.33 15.878 18.214C15.716 19.114 15.417 19.897 14.711 20.394C14.4743 20.5596 14.2154 20.6909 13.942 20.784C13.124 21.064 12.311 20.841 11.485 20.439C10.671 20.044 9.685 19.393 8.453 18.582L8.186 18.406C7.739 18.111 7.584 18.012 7.426 17.942C7.2553 17.8659 7.07548 17.8121 6.891 17.782C6.72 17.752 6.537 17.75 6.001 17.75H5.839C4.622 17.75 3.777 17.751 3.025 17.403C2.29708 17.0506 1.69443 16.4839 1.298 15.779C0.906 15.05 0.86 14.289 0.794 13.204L0.786 13.074C0.76324 12.7164 0.751234 12.3583 0.75 12C0.75 11.659 0.764 11.294 0.786 10.926L0.794 10.796C0.86 9.71201 0.906 8.95001 1.298 8.22001C1.69443 7.5151 2.29708 6.94839 3.025 6.59601C3.777 6.24801 4.622 6.24801 5.839 6.24901H6C6.537 6.24901 6.72 6.24701 6.891 6.21801C7.07494 6.18701 7.25432 6.13327 7.425 6.05801C7.585 5.98801 7.739 5.88801 8.186 5.59301L8.453 5.41701C9.684 4.60601 10.671 3.95501 11.485 3.56001ZM19.52 5.42401C19.6728 5.29676 19.8699 5.23539 20.0679 5.25339C20.2659 5.27139 20.4487 5.36729 20.576 5.52001L20.577 5.52101L20.579 5.52301L20.582 5.52701L20.589 5.53601C20.6188 5.57314 20.6475 5.61116 20.675 5.65001C20.7467 5.75096 20.8145 5.8547 20.878 5.96101C21.039 6.23101 21.246 6.62601 21.45 7.15601C21.858 8.21701 22.25 9.80901 22.25 12C22.25 14.192 21.858 15.783 21.45 16.845C21.294 17.2587 21.1026 17.6582 20.878 18.039C20.7956 18.1765 20.7061 18.3097 20.61 18.438L20.597 18.455L20.589 18.465L20.582 18.474L20.579 18.477L20.577 18.479L20 18L20.576 18.48C20.4475 18.6272 20.2667 18.7185 20.0719 18.7344C19.8771 18.7503 19.6839 18.6896 19.5332 18.5651C19.3826 18.4407 19.2864 18.2623 19.2653 18.0681C19.2442 17.8738 19.2997 17.679 19.42 17.525M19.42 17.525L19.423 17.52L19.454 17.479C19.5024 17.4101 19.5481 17.3394 19.591 17.267C19.711 17.069 19.879 16.751 20.05 16.306C20.392 15.417 20.75 14.009 20.75 12C20.75 9.99201 20.392 8.58301 20.05 7.69401C19.9248 7.36112 19.7712 7.03961 19.591 6.73301C19.5381 6.6447 19.481 6.55894 19.42 6.47601L19.423 6.48001L19.422 6.47801L19.42 6.47601C19.2945 6.32295 19.2345 6.12647 19.2533 5.9294C19.272 5.73234 19.3679 5.55067 19.52 5.42401M17.636 8.34401C17.7221 8.29618 17.8169 8.26579 17.9147 8.25458C18.0126 8.24336 18.1118 8.25155 18.2065 8.27867C18.3012 8.30579 18.3897 8.3513 18.4668 8.41261C18.5439 8.47393 18.6082 8.54984 18.656 8.63601V8.63701L18.657 8.63901L18.659 8.64201L18.663 8.64901L18.673 8.66701L18.699 8.72101C18.8144 8.98095 18.9074 9.25026 18.977 9.52601C19.117 10.077 19.25 10.89 19.25 12C19.25 13.11 19.118 13.923 18.977 14.474C18.9229 14.6885 18.8551 14.8992 18.774 15.105C18.7432 15.1824 18.7092 15.2585 18.672 15.333L18.662 15.352L18.659 15.359L18.657 15.362C18.657 15.362 18.656 15.365 18.027 15.016L18.656 15.364C18.6088 15.4505 18.545 15.5268 18.4683 15.5886C18.3916 15.6505 18.3035 15.6966 18.2089 15.7243C18.1144 15.7521 18.0153 15.761 17.9174 15.7505C17.8194 15.7399 17.7245 15.7102 17.638 15.663C17.5515 15.6158 17.4752 15.552 17.4134 15.4753C17.3515 15.3986 17.3054 15.3105 17.2777 15.2159C17.2499 15.1214 17.241 15.0223 17.2516 14.9244C17.2621 14.8264 17.2918 14.7315 17.339 14.645L17.344 14.635C17.4176 14.4619 17.4778 14.2834 17.524 14.101C17.632 13.677 17.75 12.991 17.75 12.001C17.75 11.011 17.632 10.323 17.523 9.89901C17.4771 9.71667 17.4173 9.53815 17.344 9.36501L17.339 9.35501C17.246 9.18138 17.2249 8.97812 17.2805 8.78914C17.3361 8.60016 17.4638 8.44062 17.636 8.34501V8.34401Z" fill="white"/>
</svg>
