<svg width="24" height="24" viewBox="0 0 24 24" fill="none" xmlns="http://www.w3.org/2000/svg">
<path fill-rule="evenodd" clip-rule="evenodd" d="M22.53 1.47C22.6705 1.61062 22.7493 1.80125 22.7493 2C22.7493 2.19875 22.6705 2.38937 22.53 2.53L2.53 22.53C2.38783 22.6625 2.19978 22.7346 2.00548 22.7312C1.81118 22.7277 1.62579 22.649 1.48838 22.5116C1.35097 22.3742 1.27225 22.1888 1.26883 21.9945C1.2654 21.8002 1.33752 21.6122 1.47 21.47L5.191 17.748C4.308 17.738 3.636 17.686 3.025 17.403C2.29708 17.0506 1.69443 16.4839 1.298 15.779C0.906 15.05 0.86 14.289 0.794 13.204L0.786 13.074C0.76324 12.7164 0.751234 12.3583 0.75 12C0.75 11.659 0.764 11.294 0.786 10.926L0.794 10.796C0.86 9.712 0.906 8.95 1.298 8.22C1.69443 7.51509 2.29708 6.94838 3.025 6.596C3.777 6.248 4.622 6.248 5.839 6.249H6C6.537 6.249 6.72 6.247 6.891 6.218C7.07494 6.18701 7.25432 6.13326 7.425 6.058C7.585 5.988 7.739 5.888 8.186 5.593L8.453 5.417C9.684 4.606 10.671 3.955 11.485 3.56C12.311 3.158 13.125 2.935 13.942 3.214C14.214 3.307 14.476 3.44 14.711 3.605C15.351 4.055 15.655 4.74 15.827 5.529C15.915 5.931 15.975 6.394 16.02 6.918L21.47 1.468C21.6106 1.32755 21.8012 1.24866 22 1.24866C22.1988 1.24866 22.3894 1.32755 22.53 1.468V1.47ZM14.61 8.329C14.553 7.228 14.489 6.435 14.361 5.849C14.225 5.225 14.044 4.971 13.848 4.834C13.728 4.74941 13.5967 4.68209 13.458 4.634C13.208 4.55 12.852 4.564 12.14 4.91C11.426 5.257 10.52 5.852 9.231 6.702L9.012 6.846L8.962 6.879C8.582 7.129 8.319 7.303 8.031 7.431C7.74655 7.55655 7.44759 7.64624 7.141 7.698C6.831 7.75 6.515 7.75 6.059 7.75H6C4.556 7.75 4.07 7.766 3.655 7.958C3.22152 8.17436 2.86124 8.51343 2.619 8.933C2.401 9.338 2.36 9.753 2.283 11.017C2.263 11.364 2.25 11.697 2.25 12C2.25 12.303 2.262 12.636 2.283 12.983C2.36 14.247 2.401 14.663 2.619 15.067C2.828 15.456 3.254 15.857 3.655 16.042C4.069 16.234 4.556 16.25 6 16.25H6.06C6.299 16.25 6.5 16.25 6.682 16.258L14.61 8.328V8.329ZM20.265 6.316C20.4463 6.23458 20.6525 6.22845 20.8383 6.29895C21.0241 6.36945 21.1743 6.51082 21.256 6.692C21.724 7.727 22.25 9.46 22.25 12C22.25 14.192 21.858 15.783 21.45 16.844C21.2939 17.258 21.1026 17.6578 20.878 18.039C20.7894 18.1858 20.693 18.3277 20.589 18.464L20.582 18.474L20.579 18.477L20.577 18.479L20 18L20.576 18.48C20.4492 18.6333 20.2667 18.7299 20.0687 18.7487C19.8707 18.7675 19.6733 18.7068 19.52 18.58C19.3667 18.4532 19.27 18.2707 19.2513 18.0727C19.2325 17.8747 19.2932 17.6773 19.42 17.524L19.423 17.52L19.454 17.479C19.5024 17.4101 19.5481 17.3394 19.591 17.267C19.711 17.068 19.879 16.751 20.05 16.306C20.392 15.417 20.75 14.008 20.75 12C20.75 9.674 20.27 8.151 19.89 7.308C19.8082 7.12672 19.8018 6.92038 19.8721 6.73435C19.9424 6.54832 20.0837 6.39784 20.265 6.316ZM18.164 9.266C18.2605 9.24595 18.3599 9.2451 18.4567 9.2635C18.5535 9.2819 18.6457 9.31919 18.7281 9.37324C18.8104 9.42728 18.8814 9.49703 18.9368 9.57849C18.9922 9.65995 19.031 9.75153 19.051 9.848C19.161 10.378 19.25 11.088 19.25 12C19.25 13.11 19.118 13.923 18.977 14.474C18.9229 14.6885 18.8551 14.8992 18.774 15.105C18.7432 15.1824 18.7092 15.2585 18.672 15.333L18.662 15.351L18.659 15.358L18.657 15.361V15.363C18.657 15.363 18.656 15.364 18.027 15.015L18.656 15.365C18.5605 15.5396 18.3996 15.6692 18.2086 15.7252C18.0176 15.7812 17.8121 15.759 17.6375 15.6635C17.4629 15.568 17.3333 15.4071 17.2773 15.2161C17.2213 15.0251 17.2435 14.8196 17.339 14.645L17.344 14.635C17.3574 14.6063 17.3701 14.5773 17.382 14.548C17.4385 14.4022 17.4856 14.2529 17.523 14.101C17.633 13.677 17.75 12.99 17.75 12C17.7566 11.3799 17.7003 10.7607 17.582 10.152C17.5418 9.95734 17.5805 9.75469 17.6897 9.58856C17.7988 9.42243 17.9694 9.30641 18.164 9.266ZM15.5 11.25C15.6989 11.25 15.8897 11.329 16.0303 11.4697C16.171 11.6103 16.25 11.8011 16.25 12C16.25 12.552 16.214 13.525 16.162 14.64L16.159 14.698C16.091 16.158 16.037 17.33 15.878 18.214C15.716 19.114 15.417 19.897 14.711 20.394C14.4743 20.5596 14.2154 20.6909 13.942 20.784C13.2 21.038 12.462 20.877 11.72 20.549C10.988 20.225 10.128 19.681 9.089 19C8.92258 18.891 8.80627 18.7203 8.76567 18.5256C8.72507 18.3308 8.7635 18.1279 8.8725 17.9615C8.9815 17.7951 9.15215 17.6788 9.34691 17.6382C9.54167 17.5976 9.74458 17.636 9.911 17.745C10.97 18.439 11.726 18.911 12.327 19.177C12.919 19.439 13.232 19.442 13.457 19.365C13.595 19.318 13.73 19.25 13.848 19.166C14.065 19.014 14.263 18.719 14.401 17.948C14.541 17.173 14.592 16.101 14.664 14.571C14.716 13.451 14.75 12.511 14.75 12C14.75 11.8011 14.829 11.6103 14.9697 11.4697C15.1103 11.329 15.3011 11.25 15.5 11.25Z" fill="white"/>
</svg>
