<svg width="24" height="24" viewBox="0 0 24 24" fill="none" xmlns="http://www.w3.org/2000/svg">
<path fill-rule="evenodd" clip-rule="evenodd" d="M12 2.75C9.54675 2.75 7.19397 3.72455 5.45926 5.45926C3.72455 7.19397 2.75 9.54675 2.75 12C2.75 14.4533 3.72455 16.806 5.45926 18.5407C7.19397 20.2754 9.54675 21.25 12 21.25C14.4533 21.25 16.806 20.2754 18.5407 18.5407C20.2754 16.806 21.25 14.4533 21.25 12C21.25 9.54675 20.2754 7.19397 18.5407 5.45926C16.806 3.72455 14.4533 2.75 12 2.75ZM1.25 12C1.25 6.063 6.063 1.25 12 1.25C17.937 1.25 22.75 6.063 22.75 12C22.75 17.937 17.937 22.75 12 22.75C6.063 22.75 1.25 17.937 1.25 12ZM9.478 7.25H9.522C9.736 7.25 9.932 7.25 10.098 7.261C10.276 7.273 10.471 7.301 10.67 7.383C11.098 7.561 11.44 7.902 11.617 8.33C11.699 8.529 11.727 8.724 11.739 8.902C11.75 9.067 11.75 9.264 11.75 9.478V14.522C11.75 14.736 11.75 14.932 11.739 15.098C11.727 15.276 11.699 15.471 11.617 15.67C11.4394 16.0987 11.0987 16.4394 10.67 16.617C10.471 16.699 10.276 16.727 10.098 16.739C9.933 16.75 9.736 16.75 9.522 16.75H9.478C9.264 16.75 9.068 16.75 8.902 16.739C8.70591 16.7301 8.51264 16.6889 8.33 16.617C7.90125 16.4394 7.56061 16.0987 7.383 15.67C7.31109 15.4874 7.26987 15.2941 7.261 15.098C7.25 14.933 7.25 14.736 7.25 14.522V9.478C7.25 9.264 7.25 9.068 7.261 8.902C7.273 8.724 7.301 8.529 7.383 8.33C7.56061 7.90125 7.90125 7.56061 8.33 7.383C8.529 7.301 8.724 7.273 8.902 7.261C9.067 7.25 9.264 7.25 9.478 7.25ZM8.901 8.77C8.84254 8.79549 8.79604 8.84235 8.771 8.901C8.76389 8.93493 8.75955 8.96937 8.758 9.004C8.75039 9.16922 8.74772 9.33462 8.75 9.5V14.5C8.75 14.743 8.75 14.888 8.758 14.996C8.762 15.063 8.768 15.091 8.77 15.099C8.79549 15.1575 8.84235 15.204 8.901 15.229C8.93492 15.2362 8.96937 15.2405 9.004 15.242C9.112 15.25 9.257 15.25 9.5 15.25C9.743 15.25 9.888 15.25 9.996 15.242C10.0306 15.2408 10.0651 15.2368 10.099 15.23C10.1575 15.2045 10.204 15.1576 10.229 15.099C10.2362 15.0651 10.2405 15.0306 10.242 14.996C10.25 14.888 10.25 14.743 10.25 14.5V9.5C10.25 9.257 10.25 9.112 10.242 9.004C10.2408 8.96939 10.2368 8.93495 10.23 8.901C10.2045 8.84254 10.1576 8.79604 10.099 8.771C10.0651 8.76389 10.0306 8.75954 9.996 8.758C9.83078 8.75039 9.66538 8.74772 9.5 8.75C9.257 8.75 9.112 8.75 9.004 8.758C8.9694 8.75922 8.93495 8.76323 8.901 8.77ZM14.478 7.25H14.522C14.736 7.25 14.932 7.25 15.098 7.261C15.276 7.273 15.471 7.301 15.67 7.383C16.099 7.561 16.44 7.902 16.617 8.33C16.699 8.529 16.727 8.724 16.739 8.902C16.75 9.067 16.75 9.264 16.75 9.478V14.522C16.75 14.736 16.75 14.932 16.739 15.098C16.727 15.276 16.699 15.471 16.617 15.67C16.4394 16.0987 16.0987 16.4394 15.67 16.617C15.471 16.699 15.276 16.727 15.098 16.739C14.933 16.75 14.736 16.75 14.522 16.75H14.478C14.264 16.75 14.068 16.75 13.902 16.739C13.7059 16.7301 13.5126 16.6889 13.33 16.617C12.9013 16.4394 12.5606 16.0987 12.383 15.67C12.3111 15.4874 12.2699 15.2941 12.261 15.098C12.25 14.933 12.25 14.736 12.25 14.522V9.478C12.25 9.264 12.25 9.068 12.261 8.902C12.273 8.724 12.301 8.529 12.383 8.33C12.5606 7.90125 12.9013 7.56061 13.33 7.383C13.529 7.301 13.724 7.273 13.902 7.261C14.067 7.25 14.264 7.25 14.478 7.25ZM13.901 8.77C13.8425 8.79549 13.796 8.84235 13.771 8.901C13.7638 8.93492 13.7595 8.96937 13.758 9.004C13.7504 9.16922 13.7477 9.33462 13.75 9.5V14.5C13.75 14.743 13.75 14.888 13.758 14.996C13.762 15.063 13.768 15.091 13.77 15.099C13.7955 15.1575 13.8424 15.204 13.901 15.229C13.9349 15.2362 13.9694 15.2405 14.004 15.242C14.112 15.25 14.257 15.25 14.5 15.25C14.743 15.25 14.888 15.25 14.996 15.242C15.0306 15.2408 15.0651 15.2368 15.099 15.23C15.1575 15.2045 15.204 15.1576 15.229 15.099C15.2362 15.0651 15.2405 15.0306 15.242 14.996C15.25 14.888 15.25 14.743 15.25 14.5V9.5C15.25 9.257 15.25 9.112 15.242 9.004C15.2408 8.96939 15.2368 8.93495 15.23 8.901C15.2045 8.84254 15.1576 8.79604 15.099 8.771C15.0651 8.7639 15.0306 8.75955 14.996 8.758C14.8308 8.75039 14.6654 8.74772 14.5 8.75C14.257 8.75 14.112 8.75 14.004 8.758C13.9694 8.75922 13.935 8.76323 13.901 8.77Z" fill="white"/>
</svg>
