<svg width="24" height="24" viewBox="0 0 24 24" fill="none" xmlns="http://www.w3.org/2000/svg">
<path d="M2.75 12C2.75 10.1705 3.2925 8.38213 4.30891 6.86098C5.32531 5.33982 6.76996 4.15423 8.46018 3.45411C10.1504 2.754 12.0103 2.57082 13.8046 2.92774C15.5989 3.28465 17.2471 4.16563 18.5407 5.45926C19.8344 6.7529 20.7154 8.40109 21.0723 10.1954C21.4292 11.9897 21.246 13.8496 20.5459 15.5398C19.8458 17.23 18.6602 18.6747 17.139 19.6911C15.6179 20.7075 13.8295 21.25 12 21.25C11.8011 21.25 11.6103 21.329 11.4697 21.4697C11.329 21.6103 11.25 21.8011 11.25 22C11.25 22.1989 11.329 22.3897 11.4697 22.5303C11.6103 22.671 11.8011 22.75 12 22.75C17.937 22.75 22.75 17.937 22.75 12C22.75 6.063 17.937 1.25 12 1.25C6.063 1.25 1.25 6.063 1.25 12C1.25 12.1989 1.32902 12.3897 1.46967 12.5303C1.61032 12.671 1.80109 12.75 2 12.75C2.19891 12.75 2.38968 12.671 2.53033 12.5303C2.67098 12.3897 2.75 12.1989 2.75 12Z" fill="white"/>
<path d="M5 12.25C4.80109 12.25 4.61032 12.329 4.46967 12.4697C4.32902 12.6103 4.25 12.8011 4.25 13C4.25 13.1989 4.32902 13.3897 4.46967 13.5303C4.61032 13.671 4.80109 13.75 5 13.75H9.19L2.47 20.47C2.39631 20.5387 2.33721 20.6215 2.29622 20.7135C2.25523 20.8055 2.23319 20.9048 2.23141 21.0055C2.22963 21.1062 2.24816 21.2062 2.28588 21.2996C2.3236 21.393 2.37974 21.4778 2.45096 21.549C2.52218 21.6203 2.60702 21.6764 2.7004 21.7141C2.79379 21.7518 2.89382 21.7704 2.99452 21.7686C3.09523 21.7668 3.19454 21.7448 3.28654 21.7038C3.37854 21.6628 3.46134 21.6037 3.53 21.53L10.25 14.81V19C10.25 19.1989 10.329 19.3897 10.4697 19.5303C10.6103 19.671 10.8011 19.75 11 19.75C11.1989 19.75 11.3897 19.671 11.5303 19.5303C11.671 19.3897 11.75 19.1989 11.75 19V13C11.75 12.8011 11.671 12.6103 11.5303 12.4697C11.3897 12.329 11.1989 12.25 11 12.25H5Z" fill="white"/>
</svg>
