<svg width="24" height="24" viewBox="0 0 24 24" fill="none" xmlns="http://www.w3.org/2000/svg">
<path fill-rule="evenodd" clip-rule="evenodd" d="M11.075 7.508C9.746 6.724 8.25 7.791 8.25 9.213V14.787C8.25 16.209 9.746 17.276 11.075 16.492L15.795 13.705C17.068 12.953 17.068 11.047 15.795 10.295L11.075 7.508ZM9.75 9.213C9.75 9.015 9.846 8.876 9.96 8.805C10.0119 8.77021 10.0728 8.75122 10.1353 8.75033C10.1977 8.74944 10.2591 8.7667 10.312 8.8L15.032 11.587C15.1015 11.6305 15.1583 11.6916 15.1966 11.7641C15.2349 11.8367 15.2533 11.918 15.25 12C15.2533 12.0819 15.2349 12.1633 15.1966 12.2359C15.1583 12.3084 15.1015 12.3695 15.032 12.413L10.312 15.2C10.259 15.2335 10.1974 15.2509 10.1348 15.25C10.0721 15.2491 10.011 15.23 9.959 15.195C9.89202 15.1507 9.8376 15.0899 9.80099 15.0184C9.76438 14.9469 9.74682 14.8672 9.75 14.787V9.213Z" fill="white"/>
<path fill-rule="evenodd" clip-rule="evenodd" d="M12 1.25C6.063 1.25 1.25 6.063 1.25 12C1.25 17.937 6.063 22.75 12 22.75C17.937 22.75 22.75 17.937 22.75 12C22.75 6.063 17.937 1.25 12 1.25ZM2.75 12C2.75 9.54675 3.72455 7.19397 5.45926 5.45926C7.19397 3.72455 9.54675 2.75 12 2.75C14.4533 2.75 16.806 3.72455 18.5407 5.45926C20.2754 7.19397 21.25 9.54675 21.25 12C21.25 14.4533 20.2754 16.806 18.5407 18.5407C16.806 20.2754 14.4533 21.25 12 21.25C9.54675 21.25 7.19397 20.2754 5.45926 18.5407C3.72455 16.806 2.75 14.4533 2.75 12Z" fill="white"/>
</svg>
